<svg width="125" height="54" viewBox="0 0 125 54" fill="none" xmlns="http://www.w3.org/2000/svg">
<path d="M23.976 40H18.936L7.524 22.756V40H2.484V14.836H7.524L18.936 32.116V14.836H23.976V40ZM47.4967 29.596C47.4967 30.316 47.4487 30.964 47.3527 31.54H32.7727C32.8927 32.98 33.3967 34.108 34.2847 34.924C35.1727 35.74 36.2647 36.148 37.5607 36.148C39.4327 36.148 40.7647 35.344 41.5567 33.736H46.9927C46.4167 35.656 45.3127 37.24 43.6807 38.488C42.0487 39.712 40.0447 40.324 37.6687 40.324C35.7487 40.324 34.0207 39.904 32.4847 39.064C30.9727 38.2 29.7847 36.988 28.9207 35.428C28.0807 33.868 27.6607 32.068 27.6607 30.028C27.6607 27.964 28.0807 26.152 28.9207 24.592C29.7607 23.032 30.9367 21.832 32.4487 20.992C33.9607 20.152 35.7007 19.732 37.6687 19.732C39.5647 19.732 41.2567 20.14 42.7447 20.956C44.2567 21.772 45.4207 22.936 46.2367 24.448C47.0767 25.936 47.4967 27.652 47.4967 29.596ZM42.2767 28.156C42.2527 26.86 41.7847 25.828 40.8727 25.06C39.9607 24.268 38.8447 23.872 37.5247 23.872C36.2767 23.872 35.2207 24.256 34.3567 25.024C33.5167 25.768 33.0007 26.812 32.8087 28.156H42.2767ZM62.1914 40L58.0874 33.808L54.4514 40H49.0514L55.5674 29.992L48.9794 20.056H54.6674L58.7354 26.212L62.4074 20.056H67.8074L61.2554 29.992L67.8794 40H62.1914ZM76.4848 24.196V33.844C76.4848 34.516 76.6408 35.008 76.9528 35.32C77.2888 35.608 77.8408 35.752 78.6088 35.752H80.9488V40H77.7808C73.5328 40 71.4088 37.936 71.4088 33.808V24.196H69.0328V20.056H71.4088V15.124H76.4848V20.056H80.9488V24.196H76.4848Z" fill="#D9D9D9"/>
<path d="M55.396 45.676C55.396 44.988 55.536 44.388 55.816 43.876C56.096 43.356 56.484 42.956 56.98 42.676C57.476 42.388 58.044 42.244 58.684 42.244C59.508 42.244 60.188 42.452 60.724 42.868C61.268 43.276 61.632 43.852 61.816 44.596H60.004C59.908 44.308 59.744 44.084 59.512 43.924C59.288 43.756 59.008 43.672 58.672 43.672C58.192 43.672 57.812 43.848 57.532 44.2C57.252 44.544 57.112 45.036 57.112 45.676C57.112 46.308 57.252 46.8 57.532 47.152C57.812 47.496 58.192 47.668 58.672 47.668C59.352 47.668 59.796 47.364 60.004 46.756H61.816C61.632 47.476 61.268 48.048 60.724 48.472C60.18 48.896 59.5 49.108 58.684 49.108C58.044 49.108 57.476 48.968 56.98 48.688C56.484 48.4 56.096 48 55.816 47.488C55.536 46.968 55.396 46.364 55.396 45.676ZM66.7908 42.256C67.2948 42.256 67.7428 42.368 68.1348 42.592C68.5268 42.808 68.8308 43.132 69.0468 43.564C69.2708 43.988 69.3828 44.5 69.3828 45.1V49H67.7028V45.328C67.7028 44.8 67.5708 44.396 67.3068 44.116C67.0428 43.828 66.6828 43.684 66.2268 43.684C65.7628 43.684 65.3948 43.828 65.1228 44.116C64.8588 44.396 64.7268 44.8 64.7268 45.328V49H63.0468V40.12H64.7268V43.18C64.9428 42.892 65.2308 42.668 65.5908 42.508C65.9508 42.34 66.3508 42.256 66.7908 42.256ZM70.5483 45.652C70.5483 44.98 70.6803 44.384 70.9443 43.864C71.2163 43.344 71.5803 42.944 72.0363 42.664C72.5003 42.384 73.0163 42.244 73.5843 42.244C74.0803 42.244 74.5123 42.344 74.8803 42.544C75.2563 42.744 75.5563 42.996 75.7803 43.3V42.352H77.4723V49H75.7803V48.028C75.5643 48.34 75.2643 48.6 74.8803 48.808C74.5043 49.008 74.0683 49.108 73.5723 49.108C73.0123 49.108 72.5003 48.964 72.0363 48.676C71.5803 48.388 71.2163 47.984 70.9443 47.464C70.6803 46.936 70.5483 46.332 70.5483 45.652ZM75.7803 45.676C75.7803 45.268 75.7003 44.92 75.5403 44.632C75.3803 44.336 75.1643 44.112 74.8923 43.96C74.6203 43.8 74.3283 43.72 74.0163 43.72C73.7043 43.72 73.4163 43.796 73.1523 43.948C72.8883 44.1 72.6723 44.324 72.5043 44.62C72.3443 44.908 72.2643 45.252 72.2643 45.652C72.2643 46.052 72.3443 46.404 72.5043 46.708C72.6723 47.004 72.8883 47.232 73.1523 47.392C73.4243 47.552 73.7123 47.632 74.0163 47.632C74.3283 47.632 74.6203 47.556 74.8923 47.404C75.1643 47.244 75.3803 47.02 75.5403 46.732C75.7003 46.436 75.7803 46.084 75.7803 45.676ZM81.0692 43.732V46.948C81.0692 47.172 81.1212 47.336 81.2252 47.44C81.3372 47.536 81.5212 47.584 81.7772 47.584H82.5572V49H81.5012C80.0852 49 79.3772 48.312 79.3772 46.936V43.732H78.5852V42.352H79.3772V40.708H81.0692V42.352H82.5572V43.732H81.0692Z" fill="#D9D9D9"/>
<path d="M97.6667 26.375H111.333M97.6667 33.2083H107.917M114.75 17.8333C116.109 17.8333 117.413 18.3733 118.374 19.3344C119.335 20.2955 119.875 21.5991 119.875 22.9583V36.625C119.875 37.9842 119.335 39.2878 118.374 40.2489C117.413 41.21 116.109 41.75 114.75 41.75H106.208L97.6667 46.875V41.75H94.25C92.8908 41.75 91.5872 41.21 90.6261 40.2489C89.665 39.2878 89.125 37.9842 89.125 36.625V22.9583C89.125 21.5991 89.665 20.2955 90.6261 19.3344C91.5872 18.3733 92.8908 17.8333 94.25 17.8333H114.75Z" stroke="#78ADBE" stroke-width="2" stroke-linecap="round" stroke-linejoin="round"/>
</svg>
