<svg width="15" height="15" viewBox="0 0 15 15" fill="none" xmlns="http://www.w3.org/2000/svg">
<path fill-rule="evenodd" clip-rule="evenodd" d="M0.259493 0.183793C0.371433 0.0865465 0.509688 0.0246688 0.656783 0.00598039C0.803879 -0.012708 0.953213 0.0126318 1.08591 0.0787972L14.5846 6.82854C14.7094 6.89074 14.8144 6.9865 14.8877 7.10507C14.9611 7.22364 15 7.36032 15 7.49976C15 7.6392 14.9611 7.77588 14.8877 7.89445C14.8144 8.01302 14.7094 8.10879 14.5846 8.17099L1.08591 14.9207C0.953223 14.9871 0.803822 15.0127 0.656613 14.9941C0.509404 14.9756 0.371004 14.9138 0.258926 14.8165C0.146848 14.7193 0.0661288 14.591 0.0269831 14.4479C-0.0121625 14.3048 -0.00797536 14.1533 0.0390147 14.0125L1.96033 8.24973H6.00018C6.19907 8.24973 6.38982 8.17072 6.53046 8.03007C6.6711 7.88942 6.75011 7.69867 6.75011 7.49976C6.75011 7.30086 6.6711 7.1101 6.53046 6.96945C6.38982 6.8288 6.19907 6.74979 6.00018 6.74979H1.96033L0.0382646 0.987012C-0.00848331 0.846326 -0.0124892 0.69494 0.0267528 0.551979C0.0659949 0.409017 0.147474 0.280893 0.259493 0.183793Z" fill="white"/>
</svg>
